<svg width="600" height="400" viewBox="0 0 600 400" xmlns="http://www.w3.org/2000/svg">
  <defs>
    <linearGradient id="impactGrad" x1="0%" y1="0%" x2="100%" y2="100%">
      <stop offset="0%" style="stop-color:#ff6b35;stop-opacity:0.15" />
      <stop offset="100%" style="stop-color:#f7931e;stop-opacity:0.25" />
    </linearGradient>
    <radialGradient id="peopleGrad" cx="50%" cy="50%">
      <stop offset="0%" style="stop-color:#ffffff;stop-opacity:0.2" />
      <stop offset="100%" style="stop-color:#ff6b35;stop-opacity:0.3" />
    </radialGradient>
  </defs>
  
  <!-- Background -->
  <rect width="600" height="400" fill="url(#impactGrad)"/>
  
  <!-- People/Community circles representing collaboration -->
  <circle cx="150" cy="150" r="35" fill="url(#peopleGrad)"/>
  <circle cx="150" cy="150" r="25" fill="none" stroke="#ffffff" stroke-width="2" opacity="0.4"/>
  <!-- Person icon in circle -->
  <circle cx="150" cy="140" r="8" fill="#ffffff" opacity="0.5"/>
  <path d="M 150 148 Q 140 160 130 165 Q 140 165 150 160 Q 160 165 170 165 Q 160 160 150 148" fill="#ffffff" opacity="0.5"/>
  
  <circle cx="300" cy="200" r="40" fill="url(#peopleGrad)"/>
  <circle cx="300" cy="200" r="30" fill="none" stroke="#ffffff" stroke-width="2" opacity="0.4"/>
  <!-- Person icon in circle -->
  <circle cx="300" cy="190" r="9" fill="#ffffff" opacity="0.5"/>
  <path d="M 300 198 Q 288 212 275 218 Q 288 218 300 210 Q 312 218 325 218 Q 312 212 300 198" fill="#ffffff" opacity="0.5"/>
  
  <circle cx="450" cy="150" r="35" fill="url(#peopleGrad)"/>
  <circle cx="450" cy="150" r="25" fill="none" stroke="#ffffff" stroke-width="2" opacity="0.4"/>
  <!-- Person icon in circle -->
  <circle cx="450" cy="140" r="8" fill="#ffffff" opacity="0.5"/>
  <path d="M 450 148 Q 440 160 430 165 Q 440 165 450 160 Q 460 165 470 165 Q 460 160 450 148" fill="#ffffff" opacity="0.5"/>
  
  <!-- Connecting lines showing collaboration -->
  <path d="M 185 150 Q 242 175 260 200" stroke="#ffffff" stroke-width="2" fill="none" opacity="0.3"/>
  <path d="M 340 200 Q 395 175 415 150" stroke="#ffffff" stroke-width="2" fill="none" opacity="0.3"/>
  
  <!-- Heart/Impact symbol at center bottom -->
  <path d="M 300 280 Q 280 260 270 250 Q 300 230 330 250 Q 320 260 300 280" fill="#ff6b35" opacity="0.4"/>
  
  <!-- Growth arrow pointing up -->
  <path d="M 300 320 L 280 340 M 300 320 L 320 340 M 300 320 L 300 300" stroke="#ffffff" stroke-width="3" fill="none" opacity="0.5" stroke-linecap="round"/>
</svg>

